<svg xmlns="http://www.w3.org/2000/svg" xmlns:xlink="http://www.w3.org/1999/xlink" width="1500" zoomAndPan="magnify" viewBox="0 164 750 172" height="337" preserveAspectRatio="xMidYMid meet" version="1.0"><defs><g/></defs><path fill="#ffffff" d="M 282.523438 182.121094 L 226.070312 239.53125 L 226.132812 239.59375 C 225.199219 240.378906 224.160156 241.023438 223.039062 241.480469 C 221.566406 242 219.988281 242.289062 218.453125 242.3125 C 216.917969 242.289062 215.359375 242 213.867188 241.480469 C 212.746094 241.023438 211.707031 240.378906 210.773438 239.59375 L 210.835938 239.53125 L 148.320312 176.332031 L 150.875 173.757812 L 150.832031 173.695312 C 151.765625 172.90625 154.878906 169.667969 158.472656 169.769531 C 160.214844 169.710938 161.667969 170.226562 162.851562 170.933594 L 162.808594 170.976562 L 200.125 208.75 L 200.3125 208.5625 C 202.761719 211.011719 206.351562 213.542969 211.894531 213.542969 C 217.144531 213.542969 223.0625 209.726562 225.46875 206.921875 L 266.667969 165.703125 L 232.585938 129.816406 C 230.199219 127.015625 226.257812 125.355469 220.777344 125.148438 C 216.875 125.003906 211.832031 125.6875 208.304688 127.824219 C 205.9375 126.226562 202.742188 125.292969 198.714844 125.148438 C 194.8125 125.003906 189.769531 125.6875 186.242188 127.824219 C 183.875 126.226562 180.679688 125.292969 176.652344 125.148438 C 172.5625 125.003906 167.207031 125.75 163.699219 128.15625 C 161.292969 126.351562 157.953125 125.3125 153.675781 125.148438 C 153.179688 125.128906 152.679688 125.128906 152.140625 125.128906 C 151.621094 125.128906 151.101562 125.128906 150.605469 125.148438 C 145.125 125.355469 141.183594 127.015625 138.792969 129.816406 L 82.445312 187.164062 L 88.109375 192.871094 L 144.542969 135.464844 L 144.480469 135.402344 C 145.414062 134.613281 146.453125 133.96875 147.574219 133.511719 C 149.046875 132.992188 150.605469 132.703125 152.160156 132.683594 C 153.695312 132.703125 155.253906 132.992188 156.75 133.511719 C 157.867188 133.96875 158.90625 134.613281 159.839844 135.402344 L 159.777344 135.464844 L 222.292969 198.640625 L 219.738281 201.214844 L 219.800781 201.277344 C 218.867188 202.066406 215.753906 205.304688 212.164062 205.199219 C 207.972656 205.367188 205.398438 202.066406 204.464844 201.277344 L 204.527344 201.214844 L 171.835938 168.109375 C 169.449219 165.308594 165.546875 161.488281 158.742188 161.488281 C 153.488281 161.488281 147.574219 165.308594 145.167969 168.109375 L 103.96875 209.332031 L 138.046875 245.195312 C 140.433594 247.996094 144.378906 249.660156 149.855469 249.867188 C 153.757812 250.011719 158.804688 249.328125 162.332031 247.1875 C 164.699219 248.785156 167.894531 249.71875 171.921875 249.867188 C 175.820312 250.011719 180.867188 249.328125 184.394531 247.1875 C 186.761719 248.785156 189.957031 249.71875 193.960938 249.867188 C 198.050781 250.011719 203.40625 249.265625 206.933594 246.855469 C 209.339844 248.660156 212.683594 249.699219 216.957031 249.867188 C 217.457031 249.886719 217.957031 249.886719 218.496094 249.886719 C 219.011719 249.886719 219.53125 249.886719 220.03125 249.867188 C 225.511719 249.660156 229.453125 247.996094 231.839844 245.195312 L 288.191406 187.828125 Z M 220.425781 132.722656 C 222.875 132.890625 225.09375 133.863281 226.921875 135.421875 L 226.859375 135.484375 L 233.398438 142.0625 L 234.332031 142.996094 L 255.894531 164.726562 L 250.539062 170.125 L 214.34375 133.636719 C 216.292969 132.890625 218.410156 132.578125 220.425781 132.722656 Z M 198.382812 132.722656 C 200.832031 132.890625 203.054688 133.863281 204.878906 135.421875 L 204.816406 135.484375 L 211.355469 142.0625 L 212.289062 142.996094 L 244.894531 175.851562 L 239.539062 181.25 L 192.300781 133.636719 C 194.253906 132.890625 196.347656 132.578125 198.382812 132.722656 Z M 169.574219 133.90625 C 171.710938 132.972656 174.078125 132.558594 176.339844 132.703125 C 178.789062 132.867188 181.011719 133.84375 182.835938 135.402344 L 182.773438 135.464844 L 189.3125 142.042969 L 190.246094 142.976562 L 233.894531 186.957031 L 228 192.914062 Z M 150.210938 242.269531 C 147.761719 242.101562 145.539062 241.128906 143.714844 239.570312 L 143.777344 239.507812 L 137.238281 232.929688 L 136.304688 231.996094 L 114.738281 210.265625 L 120.09375 204.867188 L 156.292969 241.355469 C 154.339844 242.101562 152.222656 242.414062 150.210938 242.269531 Z M 172.253906 242.269531 C 169.804688 242.101562 167.582031 241.128906 165.753906 239.570312 L 165.816406 239.507812 L 159.28125 232.929688 L 158.347656 231.996094 L 125.738281 199.140625 L 131.09375 193.742188 L 178.332031 241.355469 C 176.382812 242.101562 174.265625 242.414062 172.253906 242.269531 Z M 194.292969 242.269531 C 191.84375 242.101562 189.625 241.128906 187.796875 239.570312 L 187.859375 239.507812 L 181.320312 232.929688 L 180.386719 231.996094 L 136.761719 188.015625 L 142.65625 182.058594 L 201.058594 241.085938 C 198.921875 242.019531 196.554688 242.433594 194.292969 242.269531 Z M 194.292969 242.269531 " fill-opacity="1" fill-rule="nonzero"/><g fill="#ffffff" fill-opacity="1"><g transform="translate(302.852303, 185.107063)"><g><path d="M 17.671875 0 L 17.671875 0.03125 C 18.671875 0.03125 19.554688 -0.242188 20.328125 -0.796875 C 21.097656 -1.347656 21.691406 -2.023438 22.109375 -2.828125 C 22.535156 -3.640625 22.757812 -4.441406 22.78125 -5.234375 L 22.78125 -7.453125 C 22.78125 -8.210938 22.617188 -8.914062 22.296875 -9.5625 C 21.972656 -10.21875 21.4375 -10.738281 20.6875 -11.125 C 19.9375 -11.507812 18.929688 -11.703125 17.671875 -11.703125 L 17.515625 -11.703125 C 17.359375 -11.703125 17.28125 -11.78125 17.28125 -11.9375 C 17.28125 -12.113281 17.359375 -12.203125 17.515625 -12.203125 L 18.171875 -12.203125 C 18.859375 -12.285156 19.488281 -12.523438 20.0625 -12.921875 C 20.632812 -13.328125 21.082031 -13.835938 21.40625 -14.453125 C 21.726562 -15.078125 21.890625 -15.742188 21.890625 -16.453125 L 21.890625 -18.03125 C 21.890625 -18.789062 21.703125 -19.488281 21.328125 -20.125 C 20.953125 -20.769531 20.441406 -21.285156 19.796875 -21.671875 C 19.160156 -22.054688 18.453125 -22.25 17.671875 -22.25 L 0.703125 -22.25 C 0.566406 -22.25 0.5 -22.179688 0.5 -22.046875 C 0.5 -22.046875 0.5 -21.910156 0.5 -21.640625 C 0.5 -21.378906 0.5 -21.070312 0.5 -20.71875 C 0.5 -20.363281 0.5 -20.050781 0.5 -19.78125 C 0.5 -19.519531 0.5 -19.390625 0.5 -19.390625 C 0.5 -19.390625 0.5 -19.359375 0.5 -19.296875 C 0.5 -19.234375 0.53125 -19.179688 0.59375 -19.140625 C 0.632812 -19.109375 0.6875 -19.09375 0.75 -19.09375 C 0.820312 -19.09375 0.859375 -19.09375 0.859375 -19.09375 C 1.109375 -19.050781 1.390625 -18.960938 1.703125 -18.828125 C 2.023438 -18.703125 2.296875 -18.546875 2.515625 -18.359375 C 2.742188 -18.171875 2.859375 -17.988281 2.859375 -17.8125 L 2.859375 -4.484375 C 2.859375 -4.191406 2.628906 -3.925781 2.171875 -3.6875 C 1.722656 -3.457031 1.265625 -3.300781 0.796875 -3.21875 C 0.796875 -3.21875 0.769531 -3.203125 0.71875 -3.171875 C 0.675781 -3.140625 0.625 -3.109375 0.5625 -3.078125 C 0.519531 -3.015625 0.5 -2.945312 0.5 -2.875 C 0.5 -2.8125 0.5 -2.78125 0.5 -2.78125 C 0.5 -2.78125 0.5 -2.644531 0.5 -2.375 C 0.5 -2.113281 0.5 -1.8125 0.5 -1.46875 C 0.5 -1.132812 0.5 -0.832031 0.5 -0.5625 C 0.5 -0.300781 0.5 -0.171875 0.5 -0.171875 C 0.5 -0.0546875 0.566406 0 0.703125 0 Z M 8.890625 -3.609375 C 8.890625 -3.609375 8.867188 -3.609375 8.828125 -3.609375 C 8.796875 -3.609375 8.757812 -3.617188 8.71875 -3.640625 C 8.65625 -3.691406 8.617188 -3.742188 8.609375 -3.796875 C 8.597656 -3.847656 8.59375 -3.875 8.59375 -3.875 L 8.59375 -18.234375 C 8.59375 -18.234375 8.597656 -18.273438 8.609375 -18.359375 C 8.617188 -18.453125 8.644531 -18.507812 8.6875 -18.53125 C 8.726562 -18.5625 8.78125 -18.582031 8.84375 -18.59375 C 8.914062 -18.601562 8.953125 -18.609375 8.953125 -18.609375 L 13.828125 -18.609375 C 14.359375 -18.609375 14.84375 -18.421875 15.28125 -18.046875 C 15.726562 -17.671875 15.953125 -17.21875 15.953125 -16.6875 L 15.953125 -15.359375 C 15.953125 -15.160156 15.859375 -14.890625 15.671875 -14.546875 C 15.484375 -14.203125 15.226562 -13.890625 14.90625 -13.609375 C 14.582031 -13.335938 14.210938 -13.210938 13.796875 -13.234375 L 11.578125 -13.234375 C 11.378906 -13.234375 11.21875 -13.171875 11.09375 -13.046875 C 10.96875 -12.921875 10.90625 -12.757812 10.90625 -12.5625 L 10.90625 -10.171875 C 10.90625 -9.984375 10.96875 -9.820312 11.09375 -9.6875 C 11.21875 -9.550781 11.378906 -9.484375 11.578125 -9.484375 L 14.0625 -9.484375 C 14.832031 -9.441406 15.425781 -9.289062 15.84375 -9.03125 C 16.269531 -8.78125 16.566406 -8.5 16.734375 -8.1875 C 16.898438 -7.882812 16.984375 -7.640625 16.984375 -7.453125 L 16.984375 -6.46875 C 17.003906 -5.363281 16.710938 -4.609375 16.109375 -4.203125 C 15.515625 -3.804688 14.753906 -3.609375 13.828125 -3.609375 Z M 8.890625 -3.609375 "/></g></g></g><g fill="#ffffff" fill-opacity="1"><g transform="translate(326.122969, 185.107063)"><g><path d="M 0.5 -11.109375 L 0.5 -10.984375 C 0.5 -10.453125 0.519531 -9.90625 0.5625 -9.34375 C 0.601562 -8.789062 0.671875 -8.226562 0.765625 -7.65625 C 0.847656 -7.144531 0.972656 -6.640625 1.140625 -6.140625 C 1.304688 -5.648438 1.515625 -5.171875 1.765625 -4.703125 C 2.003906 -4.222656 2.238281 -3.8125 2.46875 -3.46875 C 2.695312 -3.125 3.023438 -2.71875 3.453125 -2.25 C 3.671875 -2.007812 3.960938 -1.753906 4.328125 -1.484375 C 4.691406 -1.222656 4.941406 -1.050781 5.078125 -0.96875 C 5.453125 -0.769531 5.894531 -0.578125 6.40625 -0.390625 C 6.925781 -0.210938 7.488281 -0.0507812 8.09375 0.09375 C 8.820312 0.25 9.570312 0.367188 10.34375 0.453125 C 11.125 0.546875 11.851562 0.601562 12.53125 0.625 C 13.21875 0.625 13.960938 0.578125 14.765625 0.484375 C 15.578125 0.398438 16.367188 0.269531 17.140625 0.09375 C 17.742188 -0.0507812 18.296875 -0.210938 18.796875 -0.390625 C 19.304688 -0.578125 19.757812 -0.769531 20.15625 -0.96875 C 20.289062 -1.050781 20.535156 -1.222656 20.890625 -1.484375 C 21.242188 -1.753906 21.539062 -2.019531 21.78125 -2.28125 C 22.207031 -2.726562 22.535156 -3.125 22.765625 -3.46875 C 22.992188 -3.8125 23.222656 -4.222656 23.453125 -4.703125 C 23.710938 -5.171875 23.921875 -5.65625 24.078125 -6.15625 C 24.234375 -6.65625 24.363281 -7.15625 24.46875 -7.65625 C 24.5625 -8.226562 24.628906 -8.789062 24.671875 -9.34375 C 24.710938 -9.90625 24.722656 -10.460938 24.703125 -11.015625 L 24.703125 -11.109375 C 24.722656 -11.660156 24.710938 -12.21875 24.671875 -12.78125 C 24.628906 -13.34375 24.5625 -13.898438 24.46875 -14.453125 C 24.363281 -14.960938 24.234375 -15.46875 24.078125 -15.96875 C 23.921875 -16.46875 23.710938 -16.957031 23.453125 -17.4375 C 23.222656 -17.90625 22.992188 -18.3125 22.765625 -18.65625 C 22.535156 -19 22.207031 -19.398438 21.78125 -19.859375 C 21.539062 -20.109375 21.242188 -20.363281 20.890625 -20.625 C 20.535156 -20.894531 20.289062 -21.070312 20.15625 -21.15625 C 19.757812 -21.351562 19.304688 -21.546875 18.796875 -21.734375 C 18.296875 -21.921875 17.742188 -22.082031 17.140625 -22.21875 C 16.367188 -22.375 15.578125 -22.5 14.765625 -22.59375 C 13.960938 -22.695312 13.21875 -22.75 12.53125 -22.75 C 11.851562 -22.726562 11.125 -22.671875 10.34375 -22.578125 C 9.570312 -22.492188 8.820312 -22.375 8.09375 -22.21875 C 7.488281 -22.082031 6.925781 -21.921875 6.40625 -21.734375 C 5.894531 -21.546875 5.453125 -21.351562 5.078125 -21.15625 C 4.941406 -21.070312 4.691406 -20.894531 4.328125 -20.625 C 3.960938 -20.363281 3.671875 -20.117188 3.453125 -19.890625 C 3.023438 -19.410156 2.695312 -19 2.46875 -18.65625 C 2.238281 -18.3125 2.003906 -17.90625 1.765625 -17.4375 C 1.515625 -16.957031 1.304688 -16.46875 1.140625 -15.96875 C 0.972656 -15.46875 0.847656 -14.972656 0.765625 -14.484375 C 0.671875 -13.910156 0.601562 -13.34375 0.5625 -12.78125 C 0.519531 -12.21875 0.5 -11.660156 0.5 -11.109375 Z M 6.734375 -8.25 L 6.734375 -13.890625 C 6.734375 -14.867188 6.96875 -15.757812 7.4375 -16.5625 C 7.914062 -17.375 8.554688 -18.019531 9.359375 -18.5 C 10.171875 -18.988281 11.070312 -19.234375 12.0625 -19.234375 L 13.140625 -19.234375 C 14.128906 -19.234375 15.023438 -18.988281 15.828125 -18.5 C 16.640625 -18.019531 17.285156 -17.375 17.765625 -16.5625 C 18.253906 -15.757812 18.5 -14.867188 18.5 -13.890625 L 18.5 -8.25 C 18.5 -7.257812 18.253906 -6.359375 17.765625 -5.546875 C 17.285156 -4.742188 16.640625 -4.097656 15.828125 -3.609375 C 15.023438 -3.128906 14.128906 -2.890625 13.140625 -2.890625 L 12.0625 -2.890625 C 11.070312 -2.890625 10.171875 -3.128906 9.359375 -3.609375 C 8.554688 -4.097656 7.914062 -4.742188 7.4375 -5.546875 C 6.96875 -6.359375 6.734375 -7.257812 6.734375 -8.25 Z M 6.734375 -8.25 "/></g></g></g><g fill="#ffffff" fill-opacity="1"><g transform="translate(351.372227, 185.107063)"><g><path d="M 21.125 -22.25 C 21.382812 -22.25 21.5625 -22.207031 21.65625 -22.125 C 21.757812 -22.050781 21.8125 -21.863281 21.8125 -21.5625 L 21.8125 -19.796875 C 21.8125 -19.597656 21.789062 -19.441406 21.75 -19.328125 C 21.707031 -19.222656 21.539062 -19.179688 21.25 -19.203125 L 20.5 -19.09375 C 20.363281 -19.050781 20.210938 -18.976562 20.046875 -18.875 C 19.878906 -18.78125 19.726562 -18.644531 19.59375 -18.46875 C 19.488281 -18.363281 19.34375 -18.191406 19.15625 -17.953125 C 18.96875 -17.722656 18.800781 -17.503906 18.65625 -17.296875 C 18.507812 -17.085938 18.4375 -16.984375 18.4375 -16.984375 L 13.46875 -9.3125 L 13.46875 -4.21875 C 13.488281 -4.039062 13.695312 -3.859375 14.09375 -3.671875 C 14.488281 -3.484375 14.875 -3.363281 15.25 -3.3125 L 15.484375 -3.3125 C 15.597656 -3.3125 15.664062 -3.25 15.6875 -3.125 L 15.6875 -0.140625 C 15.664062 -0.0234375 15.597656 0.03125 15.484375 0.03125 L 6 0.03125 C 5.882812 0.03125 5.816406 -0.0234375 5.796875 -0.140625 L 5.796875 -3.125 C 5.816406 -3.25 5.882812 -3.3125 6 -3.3125 L 6.5625 -3.421875 C 6.789062 -3.460938 7.039062 -3.53125 7.3125 -3.625 C 7.59375 -3.726562 7.734375 -3.847656 7.734375 -3.984375 L 7.734375 -9.84375 L 1.65625 -18.5 C 1.65625 -18.5 1.519531 -18.625 1.25 -18.875 C 0.988281 -19.132812 0.660156 -19.273438 0.265625 -19.296875 C 0.0234375 -19.296875 -0.117188 -19.34375 -0.171875 -19.4375 C -0.234375 -19.539062 -0.273438 -19.75 -0.296875 -20.0625 L -0.296875 -21.8125 C -0.296875 -22 -0.222656 -22.117188 -0.078125 -22.171875 C 0.0546875 -22.222656 0.210938 -22.25 0.390625 -22.25 L 9.015625 -22.25 C 9.210938 -22.25 9.332031 -22.179688 9.375 -22.046875 C 9.425781 -21.921875 9.453125 -21.8125 9.453125 -21.71875 L 9.453125 -20.359375 C 9.453125 -20.097656 9.414062 -19.941406 9.34375 -19.890625 C 9.28125 -19.847656 9.179688 -19.828125 9.046875 -19.828125 C 8.960938 -19.828125 8.820312 -19.796875 8.625 -19.734375 C 8.425781 -19.679688 8.289062 -19.582031 8.21875 -19.4375 C 8.039062 -19.101562 8.003906 -18.773438 8.109375 -18.453125 C 8.210938 -18.128906 8.265625 -17.96875 8.265625 -17.96875 L 10.8125 -14.265625 C 10.894531 -14.128906 10.988281 -14.007812 11.09375 -13.90625 C 11.195312 -13.8125 11.320312 -13.765625 11.46875 -13.765625 L 11.515625 -13.765625 C 11.679688 -13.765625 11.820312 -13.796875 11.9375 -13.859375 C 12.050781 -13.929688 12.179688 -14.078125 12.328125 -14.296875 C 12.515625 -14.617188 12.769531 -15.046875 13.09375 -15.578125 C 13.425781 -16.109375 13.738281 -16.617188 14.03125 -17.109375 C 14.332031 -17.597656 14.539062 -17.941406 14.65625 -18.140625 C 14.789062 -18.398438 14.867188 -18.628906 14.890625 -18.828125 C 14.910156 -19.035156 14.921875 -19.140625 14.921875 -19.140625 C 14.921875 -19.140625 14.90625 -19.175781 14.875 -19.25 C 14.84375 -19.320312 14.816406 -19.375 14.796875 -19.40625 C 14.703125 -19.570312 14.585938 -19.664062 14.453125 -19.6875 C 14.328125 -19.71875 14.265625 -19.734375 14.265625 -19.734375 C 14.265625 -19.734375 14.160156 -19.738281 13.953125 -19.75 C 13.753906 -19.757812 13.644531 -19.851562 13.625 -20.03125 L 13.625 -21.5625 C 13.644531 -21.882812 13.6875 -22.078125 13.75 -22.140625 C 13.820312 -22.210938 14.015625 -22.25 14.328125 -22.25 Z M 21.125 -22.25 "/></g></g></g><g fill="#ffffff" fill-opacity="1"><g transform="translate(372.871017, 185.107063)"><g><path d="M 3.984375 -10.703125 C 2.960938 -11.015625 2.207031 -11.445312 1.71875 -12 C 1.238281 -12.550781 0.925781 -13.15625 0.78125 -13.8125 C 0.632812 -14.46875 0.539062 -15.125 0.5 -15.78125 C 0.476562 -16.445312 0.566406 -17.09375 0.765625 -17.71875 C 0.960938 -18.351562 1.226562 -18.9375 1.5625 -19.46875 C 1.894531 -20 2.25 -20.441406 2.625 -20.796875 C 3.125 -21.273438 3.679688 -21.613281 4.296875 -21.8125 C 4.921875 -22.019531 5.457031 -22.144531 5.90625 -22.1875 C 6.363281 -22.226562 6.59375 -22.25 6.59375 -22.25 L 13.765625 -22.25 C 14.140625 -22.25 14.585938 -22.226562 15.109375 -22.1875 C 15.628906 -22.144531 16.085938 -22.070312 16.484375 -21.96875 C 16.878906 -21.875 17.078125 -21.734375 17.078125 -21.546875 L 17.078125 -16.21875 C 17.078125 -15.90625 17.03125 -15.710938 16.9375 -15.640625 C 16.851562 -15.578125 16.675781 -15.546875 16.40625 -15.546875 L 14.78125 -15.546875 C 14.59375 -15.546875 14.425781 -15.609375 14.28125 -15.734375 C 14.132812 -15.859375 14.03125 -16.019531 13.96875 -16.21875 C 13.96875 -16.21875 13.921875 -16.328125 13.828125 -16.546875 C 13.742188 -16.765625 13.640625 -17 13.515625 -17.25 C 13.390625 -17.507812 13.273438 -17.695312 13.171875 -17.8125 C 12.835938 -18.207031 12.554688 -18.46875 12.328125 -18.59375 C 12.109375 -18.726562 11.878906 -18.84375 11.640625 -18.9375 C 11.265625 -19.070312 10.878906 -19.15625 10.484375 -19.1875 C 10.085938 -19.21875 9.753906 -19.226562 9.484375 -19.21875 C 9.222656 -19.207031 9.09375 -19.203125 9.09375 -19.203125 C 8.820312 -19.203125 8.484375 -19.171875 8.078125 -19.109375 C 7.671875 -19.054688 7.269531 -18.953125 6.875 -18.796875 C 6.488281 -18.640625 6.164062 -18.410156 5.90625 -18.109375 C 5.65625 -17.816406 5.53125 -17.441406 5.53125 -16.984375 C 5.53125 -16.359375 5.707031 -15.878906 6.0625 -15.546875 C 6.414062 -15.222656 6.882812 -14.984375 7.46875 -14.828125 C 8.0625 -14.671875 8.710938 -14.535156 9.421875 -14.421875 C 10.128906 -14.316406 10.925781 -14.1875 11.8125 -14.03125 C 12.695312 -13.875 13.546875 -13.6875 14.359375 -13.46875 C 15.179688 -13.25 15.863281 -12.972656 16.40625 -12.640625 C 16.988281 -12.265625 17.421875 -11.816406 17.703125 -11.296875 C 17.992188 -10.773438 18.191406 -10.140625 18.296875 -9.390625 C 18.410156 -8.640625 18.488281 -7.742188 18.53125 -6.703125 C 18.550781 -6.054688 18.421875 -5.359375 18.140625 -4.609375 C 17.867188 -3.859375 17.492188 -3.164062 17.015625 -2.53125 C 16.546875 -1.90625 16.023438 -1.425781 15.453125 -1.09375 C 14.785156 -0.695312 14.078125 -0.421875 13.328125 -0.265625 C 12.578125 -0.109375 11.941406 -0.0234375 11.421875 -0.015625 C 10.898438 -0.00390625 10.640625 0 10.640625 0 L 4.171875 0 C 2.941406 0 2.082031 -0.0546875 1.59375 -0.171875 C 1.101562 -0.296875 0.859375 -0.5625 0.859375 -0.96875 L 0.859375 -6.828125 C 0.859375 -7.023438 0.890625 -7.132812 0.953125 -7.15625 C 1.023438 -7.175781 1.148438 -7.1875 1.328125 -7.1875 L 3.109375 -7.1875 C 3.296875 -7.1875 3.457031 -7.164062 3.59375 -7.125 C 3.738281 -7.082031 3.832031 -6.984375 3.875 -6.828125 L 4.34375 -5.828125 C 4.457031 -5.566406 4.640625 -5.28125 4.890625 -4.96875 C 5.140625 -4.664062 5.394531 -4.394531 5.65625 -4.15625 C 5.925781 -3.925781 6.128906 -3.78125 6.265625 -3.71875 C 6.535156 -3.625 6.890625 -3.554688 7.328125 -3.515625 C 7.765625 -3.472656 8.191406 -3.445312 8.609375 -3.4375 C 9.035156 -3.425781 9.390625 -3.425781 9.671875 -3.4375 C 9.960938 -3.445312 10.109375 -3.453125 10.109375 -3.453125 C 10.484375 -3.453125 10.925781 -3.507812 11.4375 -3.625 C 11.945312 -3.75 12.414062 -3.96875 12.84375 -4.28125 C 13.28125 -4.59375 13.5625 -5.054688 13.6875 -5.671875 C 14.019531 -7.484375 13.113281 -8.566406 10.96875 -8.921875 C 10.25 -9.023438 9.460938 -9.179688 8.609375 -9.390625 C 7.753906 -9.609375 6.914062 -9.835938 6.09375 -10.078125 C 5.28125 -10.316406 4.578125 -10.523438 3.984375 -10.703125 Z M 3.984375 -10.703125 "/></g></g></g><g fill="#ffffff" fill-opacity="1"><g transform="translate(391.918699, 185.107063)"><g/></g></g><g fill="#ffffff" fill-opacity="1"><g transform="translate(403.347306, 185.107063)"><g><path d="M 27.21875 -1 C 27.21875 -1 27.21875 -1.144531 27.21875 -1.4375 C 27.21875 -1.738281 27.1875 -1.9375 27.125 -2.03125 C 27.039062 -2.15625 26.929688 -2.21875 26.796875 -2.21875 C 26.660156 -2.21875 26.460938 -2.238281 26.203125 -2.28125 C 25.953125 -2.3125 25.742188 -2.375 25.578125 -2.46875 C 25.421875 -2.570312 25.34375 -2.625 25.34375 -2.625 L 22.65625 -4.515625 C 22.832031 -4.847656 22.992188 -5.179688 23.140625 -5.515625 C 23.296875 -5.859375 23.429688 -6.15625 23.546875 -6.40625 C 23.660156 -6.664062 23.753906 -7.066406 23.828125 -7.609375 C 23.898438 -8.148438 23.953125 -8.695312 23.984375 -9.25 C 24.023438 -9.800781 24.046875 -10.222656 24.046875 -10.515625 C 24.046875 -10.796875 24.0625 -11.125 24.09375 -11.5 C 24.125 -11.875 24.132812 -12.21875 24.125 -12.53125 C 24.113281 -12.84375 24.0625 -13.039062 23.96875 -13.125 C 23.925781 -13.15625 23.84375 -13.179688 23.71875 -13.203125 C 23.601562 -13.222656 23.546875 -13.234375 23.546875 -13.234375 L 19.890625 -13.234375 C 19.890625 -13.234375 19.84375 -13.222656 19.75 -13.203125 C 19.664062 -13.179688 19.59375 -13.132812 19.53125 -13.0625 C 19.46875 -13.019531 19.4375 -12.910156 19.4375 -12.734375 C 19.4375 -12.554688 19.4375 -12.46875 19.4375 -12.46875 C 19.4375 -12.46875 19.429688 -12.359375 19.421875 -12.140625 C 19.410156 -11.921875 19.40625 -11.671875 19.40625 -11.390625 C 19.40625 -11.117188 19.414062 -10.878906 19.4375 -10.671875 C 19.476562 -10.117188 19.4375 -9.585938 19.3125 -9.078125 C 19.195312 -8.578125 19.039062 -8.113281 18.84375 -7.6875 L 13.4375 -12.171875 C 14.445312 -12.546875 15.316406 -13.046875 16.046875 -13.671875 C 16.773438 -14.304688 17.335938 -14.976562 17.734375 -15.6875 C 18.140625 -16.394531 18.332031 -17.066406 18.3125 -17.703125 C 18.300781 -18.921875 17.945312 -19.910156 17.25 -20.671875 C 16.5625 -21.429688 15.613281 -21.988281 14.40625 -22.34375 C 13.207031 -22.695312 11.832031 -22.882812 10.28125 -22.90625 C 8.550781 -22.9375 7.03125 -22.738281 5.71875 -22.3125 C 4.40625 -21.894531 3.382812 -21.289062 2.65625 -20.5 C 1.925781 -19.71875 1.5625 -18.785156 1.5625 -17.703125 C 1.5625 -16.773438 1.800781 -15.925781 2.28125 -15.15625 C 2.332031 -15.082031 2.347656 -15.050781 2.328125 -15.0625 C 2.304688 -15.082031 2.316406 -15.066406 2.359375 -15.015625 L 2.453125 -14.890625 C 2.785156 -14.398438 3.207031 -13.957031 3.71875 -13.5625 C 2.5625 -12.75 1.648438 -11.796875 0.984375 -10.703125 C 0.328125 -9.617188 0 -8.472656 0 -7.265625 C 0 -6.128906 0.15625 -5.085938 0.46875 -4.140625 C 0.789062 -3.191406 1.347656 -2.367188 2.140625 -1.671875 C 2.941406 -0.972656 4.050781 -0.421875 5.46875 -0.015625 C 6.882812 0.390625 8.695312 0.617188 10.90625 0.671875 C 12.476562 0.734375 13.992188 0.582031 15.453125 0.21875 C 16.910156 -0.144531 18.203125 -0.648438 19.328125 -1.296875 L 20.203125 -0.921875 C 20.378906 -0.753906 20.566406 -0.597656 20.765625 -0.453125 C 20.960938 -0.304688 21.238281 -0.234375 21.59375 -0.234375 L 26.65625 -0.203125 C 27.03125 -0.203125 27.21875 -0.378906 27.21875 -0.734375 Z M 6.890625 -17.703125 C 6.890625 -18.210938 7.195312 -18.6875 7.8125 -19.125 C 8.4375 -19.570312 9.257812 -19.773438 10.28125 -19.734375 C 11.300781 -19.691406 12.082031 -19.46875 12.625 -19.0625 C 13.164062 -18.664062 13.4375 -18.210938 13.4375 -17.703125 C 13.4375 -17.378906 13.296875 -17.082031 13.015625 -16.8125 C 12.742188 -16.539062 12.40625 -16.296875 12 -16.078125 C 11.601562 -15.859375 11.21875 -15.6875 10.84375 -15.5625 C 10.46875 -15.445312 10.203125 -15.390625 10.046875 -15.390625 C 9.941406 -15.390625 9.796875 -15.410156 9.609375 -15.453125 C 9.367188 -15.535156 9.195312 -15.59375 9.09375 -15.625 C 9 -15.664062 8.851562 -15.738281 8.65625 -15.84375 C 8.21875 -16.050781 7.8125 -16.316406 7.4375 -16.640625 C 7.070312 -16.972656 6.890625 -17.328125 6.890625 -17.703125 Z M 15.984375 -3.984375 C 15.535156 -3.710938 14.882812 -3.5 14.03125 -3.34375 C 13.1875 -3.195312 12.3125 -3.132812 11.40625 -3.15625 C 9.789062 -3.175781 8.578125 -3.375 7.765625 -3.75 C 6.960938 -4.125 6.425781 -4.640625 6.15625 -5.296875 C 5.894531 -5.960938 5.765625 -6.75 5.765625 -7.65625 C 5.765625 -8.257812 5.90625 -8.84375 6.1875 -9.40625 C 6.476562 -9.96875 6.867188 -10.476562 7.359375 -10.9375 Z M 15.984375 -3.984375 "/></g></g></g><g fill="#ffffff" fill-opacity="1"><g transform="translate(427.887821, 185.107063)"><g/></g></g><g fill="#ffffff" fill-opacity="1"><g transform="translate(439.316428, 185.107063)"><g><path d="M 21.75 -0.765625 C 21.75 -0.765625 21.75 -0.796875 21.75 -0.859375 C 21.75 -0.929688 21.75 -1.117188 21.75 -1.421875 C 21.75 -1.734375 21.75 -2.21875 21.75 -2.875 C 21.75 -3.539062 21.75 -4.453125 21.75 -5.609375 C 21.75 -6.773438 21.75 -8.253906 21.75 -10.046875 L 21.75 -11.671875 C 21.75 -11.867188 21.675781 -12.03125 21.53125 -12.15625 C 21.394531 -12.28125 21.226562 -12.34375 21.03125 -12.34375 L 12.9375 -12.34375 C 12.738281 -12.34375 12.578125 -12.28125 12.453125 -12.15625 C 12.328125 -12.03125 12.265625 -11.867188 12.265625 -11.671875 L 12.265625 -9.34375 C 12.265625 -9.144531 12.328125 -8.972656 12.453125 -8.828125 C 12.578125 -8.691406 12.738281 -8.625 12.9375 -8.625 L 16.078125 -8.625 L 16.078125 -3.71875 C 15.898438 -3.601562 15.75 -3.523438 15.625 -3.484375 C 15.238281 -3.328125 14.910156 -3.210938 14.640625 -3.140625 C 14.367188 -3.078125 14.070312 -3.035156 13.75 -3.015625 C 13.425781 -2.992188 12.988281 -2.972656 12.4375 -2.953125 C 12.4375 -2.953125 12.429688 -2.953125 12.421875 -2.953125 C 12.410156 -2.953125 12.394531 -2.953125 12.375 -2.953125 C 11.820312 -2.972656 11.390625 -2.992188 11.078125 -3.015625 C 10.765625 -3.035156 10.46875 -3.078125 10.1875 -3.140625 C 9.914062 -3.210938 9.582031 -3.328125 9.1875 -3.484375 C 8.96875 -3.566406 8.707031 -3.75 8.40625 -4.03125 C 8.101562 -4.320312 7.804688 -4.648438 7.515625 -5.015625 C 7.234375 -5.378906 7.023438 -5.738281 6.890625 -6.09375 C 6.785156 -6.363281 6.679688 -6.679688 6.578125 -7.046875 C 6.484375 -7.410156 6.398438 -7.921875 6.328125 -8.578125 C 6.265625 -9.242188 6.234375 -10.128906 6.234375 -11.234375 C 6.234375 -12.898438 6.285156 -14.15625 6.390625 -15 C 6.503906 -15.851562 6.671875 -16.445312 6.890625 -16.78125 C 7.117188 -17.175781 7.421875 -17.554688 7.796875 -17.921875 C 8.171875 -18.285156 8.660156 -18.578125 9.265625 -18.796875 C 9.867188 -19.023438 10.617188 -19.140625 11.515625 -19.140625 C 12.421875 -19.140625 13.15625 -19.050781 13.71875 -18.875 C 14.28125 -18.695312 14.71875 -18.484375 15.03125 -18.234375 C 15.351562 -17.992188 15.59375 -17.765625 15.75 -17.546875 C 15.75 -17.546875 15.863281 -17.398438 16.09375 -17.109375 C 16.332031 -16.828125 16.460938 -16.484375 16.484375 -16.078125 L 16.515625 -15.84375 C 16.515625 -15.644531 16.578125 -15.472656 16.703125 -15.328125 C 16.835938 -15.191406 17.003906 -15.125 17.203125 -15.125 L 19.0625 -15.125 C 19.238281 -15.125 19.394531 -15.191406 19.53125 -15.328125 C 19.664062 -15.472656 19.734375 -15.644531 19.734375 -15.84375 L 19.734375 -21.1875 C 19.734375 -21.1875 19.726562 -21.285156 19.71875 -21.484375 C 19.707031 -21.679688 19.585938 -21.847656 19.359375 -21.984375 C 19.359375 -21.984375 19.082031 -22.046875 18.53125 -22.171875 C 17.976562 -22.296875 17.179688 -22.414062 16.140625 -22.53125 C 15.109375 -22.65625 13.863281 -22.71875 12.40625 -22.71875 C 10.613281 -22.695312 9.015625 -22.519531 7.609375 -22.1875 C 6.203125 -21.851562 5.125 -21.453125 4.375 -20.984375 C 4 -20.742188 3.554688 -20.378906 3.046875 -19.890625 C 2.546875 -19.410156 2.066406 -18.789062 1.609375 -18.03125 C 1.148438 -17.28125 0.765625 -16.367188 0.453125 -15.296875 C 0.148438 -14.234375 0 -12.992188 0 -11.578125 C 0 -9.691406 0.125 -8.160156 0.375 -6.984375 C 0.632812 -5.816406 0.972656 -4.878906 1.390625 -4.171875 C 1.804688 -3.472656 2.269531 -2.878906 2.78125 -2.390625 C 3.382812 -1.816406 4.207031 -1.253906 5.25 -0.703125 C 6.300781 -0.148438 7.769531 0.238281 9.65625 0.46875 C 9.78125 0.488281 10.03125 0.519531 10.40625 0.5625 C 10.789062 0.601562 11.179688 0.625 11.578125 0.625 C 11.722656 0.644531 11.859375 0.65625 11.984375 0.65625 C 12.109375 0.65625 12.238281 0.65625 12.375 0.65625 C 12.769531 0.664062 13.140625 0.664062 13.484375 0.65625 C 13.828125 0.65625 14.148438 0.632812 14.453125 0.59375 C 16.734375 0.488281 18.40625 0.351562 19.46875 0.1875 C 20.53125 0.0195312 21.0625 -0.0625 21.0625 -0.0625 C 21.238281 -0.0625 21.394531 -0.128906 21.53125 -0.265625 C 21.675781 -0.398438 21.75 -0.566406 21.75 -0.765625 Z M 21.75 -0.765625 "/></g></g></g><g fill="#ffffff" fill-opacity="1"><g transform="translate(461.583024, 185.107063)"><g><path d="M 10.78125 0 C 10.914062 0 10.984375 -0.0546875 10.984375 -0.171875 L 10.984375 -2.859375 C 10.984375 -2.859375 10.984375 -2.882812 10.984375 -2.9375 C 10.984375 -2.988281 10.96875 -3.035156 10.9375 -3.078125 C 10.914062 -3.109375 10.875 -3.128906 10.8125 -3.140625 C 10.75 -3.148438 10.71875 -3.15625 10.71875 -3.15625 C 10.269531 -3.238281 9.800781 -3.394531 9.3125 -3.625 C 8.832031 -3.863281 8.59375 -4.113281 8.59375 -4.375 L 8.59375 -17.84375 C 8.59375 -18.125 8.828125 -18.375 9.296875 -18.59375 C 9.773438 -18.820312 10.25 -18.976562 10.71875 -19.0625 C 10.71875 -19.0625 10.75 -19.066406 10.8125 -19.078125 C 10.875 -19.085938 10.914062 -19.109375 10.9375 -19.140625 C 10.96875 -19.179688 10.984375 -19.226562 10.984375 -19.28125 C 10.984375 -19.332031 10.984375 -19.359375 10.984375 -19.359375 L 10.96875 -22.046875 C 10.96875 -22.179688 10.894531 -22.25 10.75 -22.25 L 0.703125 -22.25 C 0.566406 -22.25 0.5 -22.179688 0.5 -22.046875 L 0.5 -19.359375 C 0.5 -19.359375 0.5 -19.332031 0.5 -19.28125 C 0.5 -19.226562 0.519531 -19.179688 0.5625 -19.140625 C 0.582031 -19.109375 0.617188 -19.085938 0.671875 -19.078125 C 0.734375 -19.066406 0.765625 -19.0625 0.765625 -19.0625 C 1.222656 -18.976562 1.691406 -18.820312 2.171875 -18.59375 C 2.648438 -18.375 2.890625 -18.125 2.890625 -17.84375 L 2.890625 -4.375 C 2.890625 -4.113281 2.648438 -3.863281 2.171875 -3.625 C 1.691406 -3.394531 1.222656 -3.238281 0.765625 -3.15625 C 0.765625 -3.15625 0.734375 -3.148438 0.671875 -3.140625 C 0.617188 -3.128906 0.570312 -3.109375 0.53125 -3.078125 C 0.507812 -3.035156 0.5 -2.988281 0.5 -2.9375 C 0.5 -2.882812 0.5 -2.859375 0.5 -2.859375 L 0.5 -0.171875 C 0.5 -0.0546875 0.566406 0 0.703125 0 Z M 10.78125 0 "/></g></g></g><g fill="#ffffff" fill-opacity="1"><g transform="translate(473.100232, 185.107063)"><g><path d="M 0.703125 -22.25 C 0.566406 -22.25 0.5 -22.179688 0.5 -22.046875 L 0.5 -19.296875 C 0.5 -19.296875 0.5 -19.269531 0.5 -19.21875 C 0.5 -19.164062 0.507812 -19.125 0.53125 -19.09375 C 0.570312 -19.03125 0.617188 -19 0.671875 -19 C 0.734375 -19 0.765625 -19 0.765625 -19 C 1.242188 -18.914062 1.722656 -18.753906 2.203125 -18.515625 C 2.679688 -18.285156 2.921875 -18.03125 2.921875 -17.75 L 2.921875 -4.4375 C 2.921875 -4.175781 2.679688 -3.925781 2.203125 -3.6875 C 1.722656 -3.457031 1.242188 -3.300781 0.765625 -3.21875 C 0.765625 -3.21875 0.734375 -3.21875 0.671875 -3.21875 C 0.617188 -3.21875 0.570312 -3.1875 0.53125 -3.125 C 0.507812 -3.09375 0.5 -3.050781 0.5 -3 C 0.5 -2.945312 0.5 -2.921875 0.5 -2.921875 L 0.5 -0.203125 C 0.5 -0.0664062 0.566406 0 0.703125 0 L 10.8125 0 C 10.945312 0 11.015625 -0.0664062 11.015625 -0.203125 L 11.015625 -2.921875 C 11.015625 -2.921875 11.015625 -2.945312 11.015625 -3 C 11.015625 -3.050781 11.003906 -3.09375 10.984375 -3.125 C 10.953125 -3.1875 10.90625 -3.21875 10.84375 -3.21875 C 10.78125 -3.21875 10.75 -3.21875 10.75 -3.21875 C 10.300781 -3.300781 9.828125 -3.457031 9.328125 -3.6875 C 8.835938 -3.925781 8.59375 -4.175781 8.59375 -4.4375 L 8.59375 -17.75 C 8.59375 -17.914062 8.660156 -18.085938 8.796875 -18.265625 C 8.941406 -18.441406 9.148438 -18.539062 9.421875 -18.5625 L 14.78125 -18.5625 C 15.3125 -18.5625 15.800781 -18.375 16.25 -18 C 16.707031 -17.625 16.9375 -17.171875 16.9375 -16.640625 L 16.9375 -15.65625 C 16.9375 -15.457031 16.84375 -15.164062 16.65625 -14.78125 C 16.46875 -14.40625 16.207031 -14.066406 15.875 -13.765625 C 15.550781 -13.472656 15.1875 -13.335938 14.78125 -13.359375 L 11.4375 -13.359375 C 11.257812 -13.359375 11.097656 -13.285156 10.953125 -13.140625 C 10.816406 -13.003906 10.75 -12.835938 10.75 -12.640625 L 10.75 -10.21875 C 10.75 -10.019531 10.816406 -9.859375 10.953125 -9.734375 C 11.097656 -9.609375 11.257812 -9.546875 11.4375 -9.546875 L 15.015625 -9.546875 C 15.796875 -9.484375 16.34375 -9.328125 16.65625 -9.078125 C 16.976562 -8.835938 17.160156 -8.578125 17.203125 -8.296875 C 17.253906 -8.023438 17.289062 -7.847656 17.3125 -7.765625 L 17.3125 -1.53125 C 17.3125 -1.53125 17.3125 -1.382812 17.3125 -1.09375 C 17.3125 -0.8125 17.34375 -0.613281 17.40625 -0.5 C 17.539062 -0.207031 17.734375 -0.0507812 17.984375 -0.03125 C 18.242188 -0.0078125 18.375 0 18.375 0 L 25.34375 0 C 25.488281 0 25.5625 -0.0664062 25.5625 -0.203125 L 25.59375 -2.921875 C 25.59375 -2.921875 25.59375 -2.945312 25.59375 -3 C 25.59375 -3.050781 25.570312 -3.09375 25.53125 -3.125 C 25.507812 -3.1875 25.46875 -3.21875 25.40625 -3.21875 C 25.351562 -3.21875 25.328125 -3.21875 25.328125 -3.21875 C 24.847656 -3.300781 24.367188 -3.457031 23.890625 -3.6875 C 23.410156 -3.925781 23.171875 -4.175781 23.171875 -4.4375 L 23.140625 -7.5 C 23.140625 -8.289062 23.035156 -9.003906 22.828125 -9.640625 C 22.617188 -10.285156 22.191406 -10.800781 21.546875 -11.1875 C 20.910156 -11.570312 19.953125 -11.765625 18.671875 -11.765625 L 18.53125 -11.765625 C 18.351562 -11.765625 18.265625 -11.851562 18.265625 -12.03125 C 18.265625 -12.207031 18.351562 -12.296875 18.53125 -12.296875 L 19.171875 -12.296875 C 19.859375 -12.328125 20.488281 -12.554688 21.0625 -12.984375 C 21.632812 -13.410156 22.09375 -13.957031 22.4375 -14.625 C 22.78125 -15.289062 22.953125 -15.988281 22.953125 -16.71875 L 22.953125 -17.96875 C 22.953125 -18.75 22.757812 -19.460938 22.375 -20.109375 C 22 -20.765625 21.484375 -21.285156 20.828125 -21.671875 C 20.179688 -22.054688 19.460938 -22.25 18.671875 -22.25 Z M 0.703125 -22.25 "/></g></g></g><g fill="#ffffff" fill-opacity="1"><g transform="translate(499.205897, 185.107063)"><g><path d="M 17.84375 0 L 0.703125 0 C 0.566406 0 0.5 -0.0546875 0.5 -0.171875 L 0.5 -2.859375 C 0.5 -2.859375 0.5 -2.882812 0.5 -2.9375 C 0.5 -2.988281 0.507812 -3.035156 0.53125 -3.078125 C 0.570312 -3.128906 0.617188 -3.15625 0.671875 -3.15625 C 0.734375 -3.15625 0.765625 -3.15625 0.765625 -3.15625 C 1.222656 -3.238281 1.691406 -3.394531 2.171875 -3.625 C 2.648438 -3.863281 2.890625 -4.113281 2.890625 -4.375 L 2.890625 -17.84375 C 2.890625 -18.125 2.648438 -18.375 2.171875 -18.59375 C 1.691406 -18.820312 1.222656 -18.976562 0.765625 -19.0625 C 0.765625 -19.0625 0.734375 -19.066406 0.671875 -19.078125 C 0.617188 -19.085938 0.570312 -19.109375 0.53125 -19.140625 C 0.507812 -19.179688 0.5 -19.226562 0.5 -19.28125 C 0.5 -19.332031 0.5 -19.359375 0.5 -19.359375 L 0.5 -22.046875 C 0.5 -22.179688 0.566406 -22.25 0.703125 -22.25 L 10.8125 -22.25 C 10.945312 -22.25 11.015625 -22.179688 11.015625 -22.046875 L 10.984375 -19.359375 C 10.984375 -19.359375 10.988281 -19.332031 11 -19.28125 C 11.007812 -19.226562 11 -19.179688 10.96875 -19.140625 C 10.925781 -19.109375 10.878906 -19.085938 10.828125 -19.078125 C 10.773438 -19.066406 10.75 -19.0625 10.75 -19.0625 C 10.28125 -18.976562 9.800781 -18.820312 9.3125 -18.59375 C 8.832031 -18.375 8.59375 -18.125 8.59375 -17.84375 L 8.59375 -4.375 C 8.59375 -4.269531 8.644531 -4.148438 8.75 -4.015625 C 8.863281 -3.878906 9.03125 -3.8125 9.25 -3.8125 L 11.8125 -3.8125 C 11.8125 -3.8125 11.878906 -3.804688 12.015625 -3.796875 C 12.160156 -3.785156 12.507812 -3.878906 13.0625 -4.078125 C 13.300781 -4.171875 13.644531 -4.394531 14.09375 -4.75 C 14.550781 -5.101562 14.882812 -5.507812 15.09375 -5.96875 C 15.195312 -6.125 15.265625 -6.304688 15.296875 -6.515625 C 15.335938 -6.722656 15.367188 -6.9375 15.390625 -7.15625 L 15.421875 -8 C 15.421875 -8.195312 15.488281 -8.363281 15.625 -8.5 C 15.769531 -8.644531 15.929688 -8.71875 16.109375 -8.71875 L 17.84375 -8.71875 C 18.039062 -8.71875 18.203125 -8.644531 18.328125 -8.5 C 18.460938 -8.363281 18.53125 -8.195312 18.53125 -8 L 18.53125 -0.671875 C 18.53125 -0.484375 18.460938 -0.320312 18.328125 -0.1875 C 18.203125 -0.0625 18.039062 0 17.84375 0 Z M 17.84375 0 "/></g></g></g><g fill="#ffffff" fill-opacity="1"><g transform="translate(518.25358, 185.107063)"><g><path d="M 3.984375 -10.703125 C 2.960938 -11.015625 2.207031 -11.445312 1.71875 -12 C 1.238281 -12.550781 0.925781 -13.15625 0.78125 -13.8125 C 0.632812 -14.46875 0.539062 -15.125 0.5 -15.78125 C 0.476562 -16.445312 0.566406 -17.09375 0.765625 -17.71875 C 0.960938 -18.351562 1.226562 -18.9375 1.5625 -19.46875 C 1.894531 -20 2.25 -20.441406 2.625 -20.796875 C 3.125 -21.273438 3.679688 -21.613281 4.296875 -21.8125 C 4.921875 -22.019531 5.457031 -22.144531 5.90625 -22.1875 C 6.363281 -22.226562 6.59375 -22.25 6.59375 -22.25 L 13.765625 -22.25 C 14.140625 -22.25 14.585938 -22.226562 15.109375 -22.1875 C 15.628906 -22.144531 16.085938 -22.070312 16.484375 -21.96875 C 16.878906 -21.875 17.078125 -21.734375 17.078125 -21.546875 L 17.078125 -16.21875 C 17.078125 -15.90625 17.03125 -15.710938 16.9375 -15.640625 C 16.851562 -15.578125 16.675781 -15.546875 16.40625 -15.546875 L 14.78125 -15.546875 C 14.59375 -15.546875 14.425781 -15.609375 14.28125 -15.734375 C 14.132812 -15.859375 14.03125 -16.019531 13.96875 -16.21875 C 13.96875 -16.21875 13.921875 -16.328125 13.828125 -16.546875 C 13.742188 -16.765625 13.640625 -17 13.515625 -17.25 C 13.390625 -17.507812 13.273438 -17.695312 13.171875 -17.8125 C 12.835938 -18.207031 12.554688 -18.46875 12.328125 -18.59375 C 12.109375 -18.726562 11.878906 -18.84375 11.640625 -18.9375 C 11.265625 -19.070312 10.878906 -19.15625 10.484375 -19.1875 C 10.085938 -19.21875 9.753906 -19.226562 9.484375 -19.21875 C 9.222656 -19.207031 9.09375 -19.203125 9.09375 -19.203125 C 8.820312 -19.203125 8.484375 -19.171875 8.078125 -19.109375 C 7.671875 -19.054688 7.269531 -18.953125 6.875 -18.796875 C 6.488281 -18.640625 6.164062 -18.410156 5.90625 -18.109375 C 5.65625 -17.816406 5.53125 -17.441406 5.53125 -16.984375 C 5.53125 -16.359375 5.707031 -15.878906 6.0625 -15.546875 C 6.414062 -15.222656 6.882812 -14.984375 7.46875 -14.828125 C 8.0625 -14.671875 8.710938 -14.535156 9.421875 -14.421875 C 10.128906 -14.316406 10.925781 -14.1875 11.8125 -14.03125 C 12.695312 -13.875 13.546875 -13.6875 14.359375 -13.46875 C 15.179688 -13.25 15.863281 -12.972656 16.40625 -12.640625 C 16.988281 -12.265625 17.421875 -11.816406 17.703125 -11.296875 C 17.992188 -10.773438 18.191406 -10.140625 18.296875 -9.390625 C 18.410156 -8.640625 18.488281 -7.742188 18.53125 -6.703125 C 18.550781 -6.054688 18.421875 -5.359375 18.140625 -4.609375 C 17.867188 -3.859375 17.492188 -3.164062 17.015625 -2.53125 C 16.546875 -1.90625 16.023438 -1.425781 15.453125 -1.09375 C 14.785156 -0.695312 14.078125 -0.421875 13.328125 -0.265625 C 12.578125 -0.109375 11.941406 -0.0234375 11.421875 -0.015625 C 10.898438 -0.00390625 10.640625 0 10.640625 0 L 4.171875 0 C 2.941406 0 2.082031 -0.0546875 1.59375 -0.171875 C 1.101562 -0.296875 0.859375 -0.5625 0.859375 -0.96875 L 0.859375 -6.828125 C 0.859375 -7.023438 0.890625 -7.132812 0.953125 -7.15625 C 1.023438 -7.175781 1.148438 -7.1875 1.328125 -7.1875 L 3.109375 -7.1875 C 3.296875 -7.1875 3.457031 -7.164062 3.59375 -7.125 C 3.738281 -7.082031 3.832031 -6.984375 3.875 -6.828125 L 4.34375 -5.828125 C 4.457031 -5.566406 4.640625 -5.28125 4.890625 -4.96875 C 5.140625 -4.664062 5.394531 -4.394531 5.65625 -4.15625 C 5.925781 -3.925781 6.128906 -3.78125 6.265625 -3.71875 C 6.535156 -3.625 6.890625 -3.554688 7.328125 -3.515625 C 7.765625 -3.472656 8.191406 -3.445312 8.609375 -3.4375 C 9.035156 -3.425781 9.390625 -3.425781 9.671875 -3.4375 C 9.960938 -3.445312 10.109375 -3.453125 10.109375 -3.453125 C 10.484375 -3.453125 10.925781 -3.507812 11.4375 -3.625 C 11.945312 -3.75 12.414062 -3.96875 12.84375 -4.28125 C 13.28125 -4.59375 13.5625 -5.054688 13.6875 -5.671875 C 14.019531 -7.484375 13.113281 -8.566406 10.96875 -8.921875 C 10.25 -9.023438 9.460938 -9.179688 8.609375 -9.390625 C 7.753906 -9.609375 6.914062 -9.835938 6.09375 -10.078125 C 5.28125 -10.316406 4.578125 -10.523438 3.984375 -10.703125 Z M 3.984375 -10.703125 "/></g></g></g><g fill="#ffffff" fill-opacity="1"><g transform="translate(537.301262, 185.107063)"><g/></g></g><g fill="#ffffff" fill-opacity="1"><g transform="translate(548.729881, 185.107063)"><g><path d="M 21.1875 -6.140625 L 21.1875 -0.765625 C 21.1875 -0.585938 21.117188 -0.441406 20.984375 -0.328125 C 20.859375 -0.222656 20.695312 -0.144531 20.5 -0.09375 C 20.5 -0.09375 20.351562 -0.0507812 20.0625 0.03125 C 19.769531 0.125 19.222656 0.226562 18.421875 0.34375 C 17.617188 0.46875 16.460938 0.550781 14.953125 0.59375 C 14.554688 0.632812 14.207031 0.65625 13.90625 0.65625 C 13.613281 0.65625 13.269531 0.65625 12.875 0.65625 C 12.738281 0.65625 12.609375 0.65625 12.484375 0.65625 C 12.359375 0.65625 12.222656 0.65625 12.078125 0.65625 C 11.691406 0.65625 11.316406 0.628906 10.953125 0.578125 C 10.585938 0.523438 10.328125 0.476562 10.171875 0.4375 C 8.273438 0.207031 6.804688 -0.175781 5.765625 -0.71875 C 4.722656 -1.257812 3.894531 -1.828125 3.28125 -2.421875 C 2.769531 -2.890625 2.304688 -3.472656 1.890625 -4.171875 C 1.472656 -4.878906 1.132812 -5.816406 0.875 -6.984375 C 0.625 -8.160156 0.5 -9.691406 0.5 -11.578125 C 0.5 -12.992188 0.648438 -14.238281 0.953125 -15.3125 C 1.265625 -16.394531 1.648438 -17.304688 2.109375 -18.046875 C 2.578125 -18.796875 3.0625 -19.410156 3.5625 -19.890625 C 4.0625 -20.378906 4.5 -20.742188 4.875 -20.984375 C 5.625 -21.453125 6.703125 -21.851562 8.109375 -22.1875 C 9.515625 -22.519531 11.113281 -22.6875 12.90625 -22.6875 C 14.34375 -22.707031 15.578125 -22.65625 16.609375 -22.53125 C 17.648438 -22.414062 18.445312 -22.296875 19 -22.171875 C 19.550781 -22.046875 19.828125 -21.984375 19.828125 -21.984375 C 20.046875 -21.847656 20.160156 -21.679688 20.171875 -21.484375 C 20.191406 -21.285156 20.203125 -21.1875 20.203125 -21.1875 L 20.203125 -15.84375 C 20.203125 -15.644531 20.132812 -15.472656 20 -15.328125 C 19.863281 -15.191406 19.707031 -15.125 19.53125 -15.125 L 17.578125 -15.125 C 17.378906 -15.125 17.234375 -15.191406 17.140625 -15.328125 C 17.054688 -15.472656 17.015625 -15.644531 17.015625 -15.84375 L 16.984375 -16.078125 C 16.960938 -16.484375 16.828125 -16.832031 16.578125 -17.125 C 16.335938 -17.425781 16.21875 -17.578125 16.21875 -17.578125 C 16.039062 -17.796875 15.800781 -18.023438 15.5 -18.265625 C 15.195312 -18.515625 14.769531 -18.722656 14.21875 -18.890625 C 13.664062 -19.054688 12.925781 -19.140625 12 -19.140625 C 11.09375 -19.140625 10.34375 -19.023438 9.75 -18.796875 C 9.15625 -18.578125 8.671875 -18.285156 8.296875 -17.921875 C 7.921875 -17.554688 7.617188 -17.175781 7.390625 -16.78125 C 7.171875 -16.445312 7.003906 -15.851562 6.890625 -15 C 6.785156 -14.15625 6.734375 -12.90625 6.734375 -11.25 C 6.734375 -10.132812 6.765625 -9.25 6.828125 -8.59375 C 6.898438 -7.945312 6.984375 -7.4375 7.078125 -7.0625 C 7.179688 -6.6875 7.285156 -6.363281 7.390625 -6.09375 C 7.503906 -5.75 7.703125 -5.390625 7.984375 -5.015625 C 8.273438 -4.648438 8.578125 -4.320312 8.890625 -4.03125 C 9.203125 -3.75 9.46875 -3.566406 9.6875 -3.484375 C 10.082031 -3.328125 10.410156 -3.21875 10.671875 -3.15625 C 10.941406 -3.101562 11.238281 -3.0625 11.5625 -3.03125 C 11.894531 -3 12.328125 -2.972656 12.859375 -2.953125 L 12.875 -2.953125 C 12.875 -2.972656 12.882812 -2.984375 12.90625 -2.984375 C 12.925781 -2.984375 12.9375 -2.984375 12.9375 -2.984375 C 13.46875 -3.003906 13.894531 -3.023438 14.21875 -3.046875 C 14.550781 -3.066406 14.851562 -3.101562 15.125 -3.15625 C 15.40625 -3.21875 15.734375 -3.328125 16.109375 -3.484375 C 16.316406 -3.566406 16.566406 -3.738281 16.859375 -4 C 17.160156 -4.269531 17.425781 -4.570312 17.65625 -4.90625 C 17.882812 -5.238281 18.007812 -5.570312 18.03125 -5.90625 L 18.046875 -6.140625 C 18.046875 -6.335938 18.085938 -6.5 18.171875 -6.625 C 18.265625 -6.757812 18.410156 -6.828125 18.609375 -6.828125 L 20.5 -6.828125 C 20.695312 -6.828125 20.859375 -6.757812 20.984375 -6.625 C 21.117188 -6.5 21.1875 -6.335938 21.1875 -6.140625 Z M 21.1875 -6.140625 "/></g></g></g><g fill="#ffffff" fill-opacity="1"><g transform="translate(570.435385, 185.107063)"><g><path d="M 17.84375 0 L 0.703125 0 C 0.566406 0 0.5 -0.0546875 0.5 -0.171875 L 0.5 -2.859375 C 0.5 -2.859375 0.5 -2.882812 0.5 -2.9375 C 0.5 -2.988281 0.507812 -3.035156 0.53125 -3.078125 C 0.570312 -3.128906 0.617188 -3.15625 0.671875 -3.15625 C 0.734375 -3.15625 0.765625 -3.15625 0.765625 -3.15625 C 1.222656 -3.238281 1.691406 -3.394531 2.171875 -3.625 C 2.648438 -3.863281 2.890625 -4.113281 2.890625 -4.375 L 2.890625 -17.84375 C 2.890625 -18.125 2.648438 -18.375 2.171875 -18.59375 C 1.691406 -18.820312 1.222656 -18.976562 0.765625 -19.0625 C 0.765625 -19.0625 0.734375 -19.066406 0.671875 -19.078125 C 0.617188 -19.085938 0.570312 -19.109375 0.53125 -19.140625 C 0.507812 -19.179688 0.5 -19.226562 0.5 -19.28125 C 0.5 -19.332031 0.5 -19.359375 0.5 -19.359375 L 0.5 -22.046875 C 0.5 -22.179688 0.566406 -22.25 0.703125 -22.25 L 10.8125 -22.25 C 10.945312 -22.25 11.015625 -22.179688 11.015625 -22.046875 L 10.984375 -19.359375 C 10.984375 -19.359375 10.988281 -19.332031 11 -19.28125 C 11.007812 -19.226562 11 -19.179688 10.96875 -19.140625 C 10.925781 -19.109375 10.878906 -19.085938 10.828125 -19.078125 C 10.773438 -19.066406 10.75 -19.0625 10.75 -19.0625 C 10.28125 -18.976562 9.800781 -18.820312 9.3125 -18.59375 C 8.832031 -18.375 8.59375 -18.125 8.59375 -17.84375 L 8.59375 -4.375 C 8.59375 -4.269531 8.644531 -4.148438 8.75 -4.015625 C 8.863281 -3.878906 9.03125 -3.8125 9.25 -3.8125 L 11.8125 -3.8125 C 11.8125 -3.8125 11.878906 -3.804688 12.015625 -3.796875 C 12.160156 -3.785156 12.507812 -3.878906 13.0625 -4.078125 C 13.300781 -4.171875 13.644531 -4.394531 14.09375 -4.75 C 14.550781 -5.101562 14.882812 -5.507812 15.09375 -5.96875 C 15.195312 -6.125 15.265625 -6.304688 15.296875 -6.515625 C 15.335938 -6.722656 15.367188 -6.9375 15.390625 -7.15625 L 15.421875 -8 C 15.421875 -8.195312 15.488281 -8.363281 15.625 -8.5 C 15.769531 -8.644531 15.929688 -8.71875 16.109375 -8.71875 L 17.84375 -8.71875 C 18.039062 -8.71875 18.203125 -8.644531 18.328125 -8.5 C 18.460938 -8.363281 18.53125 -8.195312 18.53125 -8 L 18.53125 -0.671875 C 18.53125 -0.484375 18.460938 -0.320312 18.328125 -0.1875 C 18.203125 -0.0625 18.039062 0 17.84375 0 Z M 17.84375 0 "/></g></g></g><g fill="#ffffff" fill-opacity="1"><g transform="translate(589.483068, 185.107063)"><g><path d="M 11.796875 -3.875 C 12.085938 -3.875 12.484375 -3.882812 12.984375 -3.90625 C 13.484375 -3.925781 13.832031 -3.941406 14.03125 -3.953125 C 14.34375 -4.015625 14.675781 -4.140625 15.03125 -4.328125 C 15.394531 -4.515625 15.671875 -4.773438 15.859375 -5.109375 C 15.960938 -5.285156 16.023438 -5.570312 16.046875 -5.96875 C 16.066406 -6.363281 16.070312 -6.757812 16.0625 -7.15625 C 16.050781 -7.5625 16.046875 -7.863281 16.046875 -8.0625 L 16.046875 -17.875 C 16.046875 -18.132812 15.804688 -18.378906 15.328125 -18.609375 C 14.859375 -18.847656 14.390625 -19.007812 13.921875 -19.09375 C 13.921875 -19.09375 13.894531 -19.09375 13.84375 -19.09375 C 13.789062 -19.09375 13.742188 -19.117188 13.703125 -19.171875 C 13.691406 -19.210938 13.6875 -19.257812 13.6875 -19.3125 C 13.6875 -19.363281 13.6875 -19.390625 13.6875 -19.390625 L 13.6875 -22.046875 C 13.6875 -22.179688 13.753906 -22.25 13.890625 -22.25 L 23.90625 -22.25 C 24.039062 -22.25 24.109375 -22.179688 24.109375 -22.046875 L 24.109375 -19.390625 C 24.109375 -19.390625 24.109375 -19.363281 24.109375 -19.3125 C 24.109375 -19.257812 24.085938 -19.210938 24.046875 -19.171875 C 24.023438 -19.117188 23.984375 -19.09375 23.921875 -19.09375 C 23.867188 -19.09375 23.84375 -19.09375 23.84375 -19.09375 C 23.394531 -19.007812 22.925781 -18.847656 22.4375 -18.609375 C 21.957031 -18.378906 21.71875 -18.132812 21.71875 -17.875 L 21.71875 -6.640625 C 21.71875 -6.640625 21.71875 -6.492188 21.71875 -6.203125 C 21.71875 -5.910156 21.707031 -5.554688 21.6875 -5.140625 C 21.664062 -4.722656 21.617188 -4.316406 21.546875 -3.921875 C 21.484375 -3.535156 21.394531 -3.242188 21.28125 -3.046875 C 20.863281 -2.390625 20.304688 -1.832031 19.609375 -1.375 C 18.921875 -0.925781 17.988281 -0.582031 16.8125 -0.34375 C 15.632812 -0.113281 14.097656 0 12.203125 0 L 11.109375 0 C 9.210938 0 7.691406 -0.113281 6.546875 -0.34375 C 5.410156 -0.582031 4.519531 -0.925781 3.875 -1.375 C 3.238281 -1.832031 2.710938 -2.390625 2.296875 -3.046875 C 2.160156 -3.242188 2.0625 -3.535156 2 -3.921875 C 1.945312 -4.316406 1.90625 -4.722656 1.875 -5.140625 C 1.84375 -5.554688 1.828125 -5.910156 1.828125 -6.203125 C 1.828125 -6.492188 1.828125 -6.640625 1.828125 -6.640625 L 1.828125 -8.5625 L 1.859375 -8.5625 L 1.859375 -17.875 C 1.859375 -18.132812 1.613281 -18.378906 1.125 -18.609375 C 0.644531 -18.847656 0.179688 -19.007812 -0.265625 -19.09375 C -0.265625 -19.09375 -0.289062 -19.09375 -0.34375 -19.09375 C -0.40625 -19.09375 -0.457031 -19.117188 -0.5 -19.171875 C -0.519531 -19.210938 -0.53125 -19.257812 -0.53125 -19.3125 C -0.53125 -19.363281 -0.53125 -19.390625 -0.53125 -19.390625 L -0.53125 -22.046875 C -0.53125 -22.179688 -0.460938 -22.25 -0.328125 -22.25 L 9.6875 -22.25 C 9.820312 -22.25 9.890625 -22.179688 9.890625 -22.046875 L 9.890625 -19.390625 C 9.890625 -19.390625 9.890625 -19.363281 9.890625 -19.3125 C 9.890625 -19.257812 9.875 -19.210938 9.84375 -19.171875 C 9.820312 -19.117188 9.78125 -19.09375 9.71875 -19.09375 C 9.65625 -19.09375 9.625 -19.09375 9.625 -19.09375 C 9.175781 -19.007812 8.707031 -18.847656 8.21875 -18.609375 C 7.738281 -18.378906 7.5 -18.132812 7.5 -17.875 L 7.5 -8.0625 C 7.5 -7.863281 7.492188 -7.5625 7.484375 -7.15625 C 7.472656 -6.757812 7.484375 -6.363281 7.515625 -5.96875 C 7.546875 -5.570312 7.613281 -5.285156 7.71875 -5.109375 C 7.90625 -4.773438 8.171875 -4.515625 8.515625 -4.328125 C 8.867188 -4.140625 9.210938 -4.015625 9.546875 -3.953125 C 9.742188 -3.941406 10.085938 -3.925781 10.578125 -3.90625 C 11.066406 -3.882812 11.472656 -3.875 11.796875 -3.875 Z M 11.796875 -3.875 "/></g></g></g><g fill="#ffffff" fill-opacity="1"><g transform="translate(613.580593, 185.107063)"><g><path d="M 17.671875 0 L 17.671875 0.03125 C 18.671875 0.03125 19.554688 -0.242188 20.328125 -0.796875 C 21.097656 -1.347656 21.691406 -2.023438 22.109375 -2.828125 C 22.535156 -3.640625 22.757812 -4.441406 22.78125 -5.234375 L 22.78125 -7.453125 C 22.78125 -8.210938 22.617188 -8.914062 22.296875 -9.5625 C 21.972656 -10.21875 21.4375 -10.738281 20.6875 -11.125 C 19.9375 -11.507812 18.929688 -11.703125 17.671875 -11.703125 L 17.515625 -11.703125 C 17.359375 -11.703125 17.28125 -11.78125 17.28125 -11.9375 C 17.28125 -12.113281 17.359375 -12.203125 17.515625 -12.203125 L 18.171875 -12.203125 C 18.859375 -12.285156 19.488281 -12.523438 20.0625 -12.921875 C 20.632812 -13.328125 21.082031 -13.835938 21.40625 -14.453125 C 21.726562 -15.078125 21.890625 -15.742188 21.890625 -16.453125 L 21.890625 -18.03125 C 21.890625 -18.789062 21.703125 -19.488281 21.328125 -20.125 C 20.953125 -20.769531 20.441406 -21.285156 19.796875 -21.671875 C 19.160156 -22.054688 18.453125 -22.25 17.671875 -22.25 L 0.703125 -22.25 C 0.566406 -22.25 0.5 -22.179688 0.5 -22.046875 C 0.5 -22.046875 0.5 -21.910156 0.5 -21.640625 C 0.5 -21.378906 0.5 -21.070312 0.5 -20.71875 C 0.5 -20.363281 0.5 -20.050781 0.5 -19.78125 C 0.5 -19.519531 0.5 -19.390625 0.5 -19.390625 C 0.5 -19.390625 0.5 -19.359375 0.5 -19.296875 C 0.5 -19.234375 0.53125 -19.179688 0.59375 -19.140625 C 0.632812 -19.109375 0.6875 -19.09375 0.75 -19.09375 C 0.820312 -19.09375 0.859375 -19.09375 0.859375 -19.09375 C 1.109375 -19.050781 1.390625 -18.960938 1.703125 -18.828125 C 2.023438 -18.703125 2.296875 -18.546875 2.515625 -18.359375 C 2.742188 -18.171875 2.859375 -17.988281 2.859375 -17.8125 L 2.859375 -4.484375 C 2.859375 -4.191406 2.628906 -3.925781 2.171875 -3.6875 C 1.722656 -3.457031 1.265625 -3.300781 0.796875 -3.21875 C 0.796875 -3.21875 0.769531 -3.203125 0.71875 -3.171875 C 0.675781 -3.140625 0.625 -3.109375 0.5625 -3.078125 C 0.519531 -3.015625 0.5 -2.945312 0.5 -2.875 C 0.5 -2.8125 0.5 -2.78125 0.5 -2.78125 C 0.5 -2.78125 0.5 -2.644531 0.5 -2.375 C 0.5 -2.113281 0.5 -1.8125 0.5 -1.46875 C 0.5 -1.132812 0.5 -0.832031 0.5 -0.5625 C 0.5 -0.300781 0.5 -0.171875 0.5 -0.171875 C 0.5 -0.0546875 0.566406 0 0.703125 0 Z M 8.890625 -3.609375 C 8.890625 -3.609375 8.867188 -3.609375 8.828125 -3.609375 C 8.796875 -3.609375 8.757812 -3.617188 8.71875 -3.640625 C 8.65625 -3.691406 8.617188 -3.742188 8.609375 -3.796875 C 8.597656 -3.847656 8.59375 -3.875 8.59375 -3.875 L 8.59375 -18.234375 C 8.59375 -18.234375 8.597656 -18.273438 8.609375 -18.359375 C 8.617188 -18.453125 8.644531 -18.507812 8.6875 -18.53125 C 8.726562 -18.5625 8.78125 -18.582031 8.84375 -18.59375 C 8.914062 -18.601562 8.953125 -18.609375 8.953125 -18.609375 L 13.828125 -18.609375 C 14.359375 -18.609375 14.84375 -18.421875 15.28125 -18.046875 C 15.726562 -17.671875 15.953125 -17.21875 15.953125 -16.6875 L 15.953125 -15.359375 C 15.953125 -15.160156 15.859375 -14.890625 15.671875 -14.546875 C 15.484375 -14.203125 15.226562 -13.890625 14.90625 -13.609375 C 14.582031 -13.335938 14.210938 -13.210938 13.796875 -13.234375 L 11.578125 -13.234375 C 11.378906 -13.234375 11.21875 -13.171875 11.09375 -13.046875 C 10.96875 -12.921875 10.90625 -12.757812 10.90625 -12.5625 L 10.90625 -10.171875 C 10.90625 -9.984375 10.96875 -9.820312 11.09375 -9.6875 C 11.21875 -9.550781 11.378906 -9.484375 11.578125 -9.484375 L 14.0625 -9.484375 C 14.832031 -9.441406 15.425781 -9.289062 15.84375 -9.03125 C 16.269531 -8.78125 16.566406 -8.5 16.734375 -8.1875 C 16.898438 -7.882812 16.984375 -7.640625 16.984375 -7.453125 L 16.984375 -6.46875 C 17.003906 -5.363281 16.710938 -4.609375 16.109375 -4.203125 C 15.515625 -3.804688 14.753906 -3.609375 13.828125 -3.609375 Z M 8.890625 -3.609375 "/></g></g></g><g fill="#ffffff" fill-opacity="1"><g transform="translate(302.039521, 208.450006)"><g><path d="M 1 -8.125 C 1 -9.800781 1.25 -11.210938 1.75 -12.359375 C 2.125 -13.191406 2.632812 -13.941406 3.28125 -14.609375 C 3.925781 -15.273438 4.632812 -15.769531 5.40625 -16.09375 C 6.4375 -16.53125 7.625 -16.75 8.96875 -16.75 C 11.382812 -16.75 13.320312 -15.992188 14.78125 -14.484375 C 16.238281 -12.984375 16.96875 -10.890625 16.96875 -8.203125 C 16.96875 -5.546875 16.242188 -3.46875 14.796875 -1.96875 C 13.359375 -0.46875 11.425781 0.28125 9 0.28125 C 6.550781 0.28125 4.601562 -0.460938 3.15625 -1.953125 C 1.71875 -3.453125 1 -5.507812 1 -8.125 Z M 4.421875 -8.25 C 4.421875 -6.382812 4.851562 -4.96875 5.71875 -4 C 6.582031 -3.039062 7.675781 -2.5625 9 -2.5625 C 10.320312 -2.5625 11.40625 -3.035156 12.25 -3.984375 C 13.101562 -4.941406 13.53125 -6.375 13.53125 -8.28125 C 13.53125 -10.175781 13.113281 -11.585938 12.28125 -12.515625 C 11.457031 -13.441406 10.363281 -13.90625 9 -13.90625 C 7.625 -13.90625 6.515625 -13.429688 5.671875 -12.484375 C 4.835938 -11.546875 4.421875 -10.132812 4.421875 -8.25 Z M 4.421875 -8.25 "/></g></g></g><g fill="#ffffff" fill-opacity="1"><g transform="translate(319.348595, 208.450006)"><g><path d="M 1.703125 0 L 1.703125 -16.46875 L 12.984375 -16.46875 L 12.984375 -13.671875 L 5.015625 -13.671875 L 5.015625 -9.78125 L 11.890625 -9.78125 L 11.890625 -7 L 5.015625 -7 L 5.015625 0 Z M 1.703125 0 "/></g></g></g><g fill="#ffffff" fill-opacity="1"><g transform="translate(332.818153, 208.450006)"><g/></g></g><g fill="#ffffff" fill-opacity="1"><g transform="translate(338.631133, 208.450006)"><g><path d="M 5.375 0 L 5.375 -13.671875 L 0.5 -13.671875 L 0.5 -16.46875 L 13.578125 -16.46875 L 13.578125 -13.671875 L 8.703125 -13.671875 L 8.703125 0 Z M 5.375 0 "/></g></g></g><g fill="#ffffff" fill-opacity="1"><g transform="translate(352.100691, 208.450006)"><g><path d="M 1.6875 0 L 1.6875 -16.46875 L 5.015625 -16.46875 L 5.015625 -9.984375 L 11.515625 -9.984375 L 11.515625 -16.46875 L 14.84375 -16.46875 L 14.84375 0 L 11.515625 0 L 11.515625 -7.203125 L 5.015625 -7.203125 L 5.015625 0 Z M 1.6875 0 "/></g></g></g><g fill="#ffffff" fill-opacity="1"><g transform="translate(368.129926, 208.450006)"><g><path d="M 1.671875 0 L 1.671875 -16.46875 L 13.875 -16.46875 L 13.875 -13.671875 L 5 -13.671875 L 5 -10.03125 L 13.265625 -10.03125 L 13.265625 -7.25 L 5 -7.25 L 5 -2.78125 L 14.203125 -2.78125 L 14.203125 0 Z M 1.671875 0 "/></g></g></g><g fill="#ffffff" fill-opacity="1"><g transform="translate(382.890549, 208.450006)"><g/></g></g><g fill="#ffffff" fill-opacity="1"><g transform="translate(388.703529, 208.450006)"><g><path d="M 1.671875 0 L 1.671875 -16.46875 L 7.015625 -16.46875 C 9.035156 -16.46875 10.351562 -16.382812 10.96875 -16.21875 C 11.90625 -15.96875 12.691406 -15.425781 13.328125 -14.59375 C 13.960938 -13.769531 14.28125 -12.707031 14.28125 -11.40625 C 14.28125 -10.394531 14.097656 -9.539062 13.734375 -8.84375 C 13.367188 -8.15625 12.898438 -7.613281 12.328125 -7.21875 C 11.765625 -6.832031 11.191406 -6.578125 10.609375 -6.453125 C 9.816406 -6.285156 8.671875 -6.203125 7.171875 -6.203125 L 5 -6.203125 L 5 0 Z M 5 -13.671875 L 5 -9 L 6.8125 -9 C 8.125 -9 9 -9.085938 9.4375 -9.265625 C 9.882812 -9.441406 10.234375 -9.710938 10.484375 -10.078125 C 10.734375 -10.441406 10.859375 -10.867188 10.859375 -11.359375 C 10.859375 -11.953125 10.679688 -12.441406 10.328125 -12.828125 C 9.972656 -13.222656 9.53125 -13.46875 9 -13.5625 C 8.601562 -13.632812 7.804688 -13.671875 6.609375 -13.671875 Z M 5 -13.671875 "/></g></g></g><g fill="#ffffff" fill-opacity="1"><g transform="translate(403.464152, 208.450006)"><g><path d="M 1.671875 0 L 1.671875 -16.46875 L 13.875 -16.46875 L 13.875 -13.671875 L 5 -13.671875 L 5 -10.03125 L 13.265625 -10.03125 L 13.265625 -7.25 L 5 -7.25 L 5 -2.78125 L 14.203125 -2.78125 L 14.203125 0 Z M 1.671875 0 "/></g></g></g><g fill="#ffffff" fill-opacity="1"><g transform="translate(418.224775, 208.450006)"><g><path d="M 1.6875 0 L 1.6875 -16.46875 L 8.6875 -16.46875 C 10.445312 -16.46875 11.722656 -16.316406 12.515625 -16.015625 C 13.316406 -15.722656 13.957031 -15.195312 14.4375 -14.4375 C 14.914062 -13.6875 15.15625 -12.820312 15.15625 -11.84375 C 15.15625 -10.613281 14.789062 -9.59375 14.0625 -8.78125 C 13.332031 -7.976562 12.242188 -7.472656 10.796875 -7.265625 C 11.515625 -6.847656 12.109375 -6.382812 12.578125 -5.875 C 13.046875 -5.375 13.675781 -4.488281 14.46875 -3.21875 L 16.484375 0 L 12.515625 0 L 10.109375 -3.578125 C 9.253906 -4.859375 8.671875 -5.664062 8.359375 -6 C 8.046875 -6.332031 7.710938 -6.5625 7.359375 -6.6875 C 7.003906 -6.8125 6.445312 -6.875 5.6875 -6.875 L 5.015625 -6.875 L 5.015625 0 Z M 5.015625 -9.5 L 7.46875 -9.5 C 9.0625 -9.5 10.054688 -9.566406 10.453125 -9.703125 C 10.847656 -9.835938 11.15625 -10.066406 11.375 -10.390625 C 11.601562 -10.722656 11.71875 -11.140625 11.71875 -11.640625 C 11.71875 -12.191406 11.570312 -12.632812 11.28125 -12.96875 C 10.988281 -13.3125 10.570312 -13.53125 10.03125 -13.625 C 9.757812 -13.65625 8.953125 -13.671875 7.609375 -13.671875 L 5.015625 -13.671875 Z M 5.015625 -9.5 "/></g></g></g><g fill="#ffffff" fill-opacity="1"><g transform="translate(434.254009, 208.450006)"><g><path d="M 1.625 0 L 1.625 -16.46875 L 6.609375 -16.46875 L 9.59375 -5.234375 L 12.546875 -16.46875 L 17.53125 -16.46875 L 17.53125 0 L 14.4375 0 L 14.4375 -12.953125 L 11.171875 0 L 7.96875 0 L 4.71875 -12.953125 L 4.71875 0 Z M 1.625 0 "/></g></g></g><g fill="#ffffff" fill-opacity="1"><g transform="translate(452.831694, 208.450006)"><g><path d="M 1.578125 0 L 1.578125 -16.46875 L 4.890625 -16.46875 L 4.890625 0 Z M 1.578125 0 "/></g></g></g><g fill="#ffffff" fill-opacity="1"><g transform="translate(458.644674, 208.450006)"><g><path d="M 16.515625 0 L 12.90625 0 L 11.46875 -3.734375 L 4.890625 -3.734375 L 3.53125 0 L 0 0 L 6.40625 -16.46875 L 9.921875 -16.46875 Z M 10.40625 -6.515625 L 8.125 -12.625 L 5.90625 -6.515625 Z M 10.40625 -6.515625 "/></g></g></g><g fill="#ffffff" fill-opacity="1"><g transform="translate(474.673909, 208.450006)"><g><path d="M 1.703125 0 L 1.703125 -16.46875 L 4.9375 -16.46875 L 11.6875 -5.46875 L 11.6875 -16.46875 L 14.765625 -16.46875 L 14.765625 0 L 11.4375 0 L 4.796875 -10.734375 L 4.796875 0 Z M 1.703125 0 "/></g></g></g><g fill="#ffffff" fill-opacity="1"><g transform="translate(490.703143, 208.450006)"><g/></g></g><g fill="#ffffff" fill-opacity="1"><g transform="translate(496.516124, 208.450006)"><g><path d="M 1.6875 -16.46875 L 8.265625 -16.46875 C 9.566406 -16.46875 10.535156 -16.410156 11.171875 -16.296875 C 11.816406 -16.191406 12.390625 -15.96875 12.890625 -15.625 C 13.398438 -15.28125 13.820312 -14.820312 14.15625 -14.25 C 14.5 -13.675781 14.671875 -13.03125 14.671875 -12.3125 C 14.671875 -11.539062 14.460938 -10.832031 14.046875 -10.1875 C 13.628906 -9.550781 13.066406 -9.070312 12.359375 -8.75 C 13.359375 -8.457031 14.125 -7.957031 14.65625 -7.25 C 15.195312 -6.550781 15.46875 -5.722656 15.46875 -4.765625 C 15.46875 -4.023438 15.296875 -3.300781 14.953125 -2.59375 C 14.609375 -1.882812 14.132812 -1.316406 13.53125 -0.890625 C 12.925781 -0.472656 12.179688 -0.210938 11.296875 -0.109375 C 10.742188 -0.046875 9.40625 -0.0078125 7.28125 0 L 1.6875 0 Z M 5.015625 -13.71875 L 5.015625 -9.921875 L 7.1875 -9.921875 C 8.476562 -9.921875 9.285156 -9.9375 9.609375 -9.96875 C 10.171875 -10.039062 10.613281 -10.238281 10.9375 -10.5625 C 11.269531 -10.882812 11.4375 -11.3125 11.4375 -11.84375 C 11.4375 -12.351562 11.296875 -12.765625 11.015625 -13.078125 C 10.734375 -13.398438 10.316406 -13.597656 9.765625 -13.671875 C 9.429688 -13.703125 8.484375 -13.71875 6.921875 -13.71875 Z M 5.015625 -7.171875 L 5.015625 -2.78125 L 8.09375 -2.78125 C 9.289062 -2.78125 10.046875 -2.8125 10.359375 -2.875 C 10.859375 -2.96875 11.265625 -3.1875 11.578125 -3.53125 C 11.890625 -3.875 12.046875 -4.34375 12.046875 -4.9375 C 12.046875 -5.425781 11.925781 -5.84375 11.6875 -6.1875 C 11.445312 -6.53125 11.097656 -6.78125 10.640625 -6.9375 C 10.191406 -7.09375 9.207031 -7.171875 7.6875 -7.171875 Z M 5.015625 -7.171875 "/></g></g></g><g fill="#ffffff" fill-opacity="1"><g transform="translate(512.545358, 208.450006)"><g><path d="M 16.515625 0 L 12.90625 0 L 11.46875 -3.734375 L 4.890625 -3.734375 L 3.53125 0 L 0 0 L 6.40625 -16.46875 L 9.921875 -16.46875 Z M 10.40625 -6.515625 L 8.125 -12.625 L 5.90625 -6.515625 Z M 10.40625 -6.515625 "/></g></g></g><g fill="#ffffff" fill-opacity="1"><g transform="translate(528.574592, 208.450006)"><g><path d="M 0.828125 -5.359375 L 4.0625 -5.671875 C 4.257812 -4.585938 4.65625 -3.789062 5.25 -3.28125 C 5.84375 -2.769531 6.644531 -2.515625 7.65625 -2.515625 C 8.726562 -2.515625 9.535156 -2.738281 10.078125 -3.1875 C 10.617188 -3.644531 10.890625 -4.175781 10.890625 -4.78125 C 10.890625 -5.175781 10.773438 -5.507812 10.546875 -5.78125 C 10.316406 -6.050781 9.921875 -6.285156 9.359375 -6.484375 C 8.960938 -6.617188 8.070312 -6.859375 6.6875 -7.203125 C 4.90625 -7.648438 3.65625 -8.195312 2.9375 -8.84375 C 1.925781 -9.75 1.421875 -10.851562 1.421875 -12.15625 C 1.421875 -12.988281 1.660156 -13.769531 2.140625 -14.5 C 2.617188 -15.226562 3.300781 -15.785156 4.1875 -16.171875 C 5.082031 -16.554688 6.164062 -16.75 7.4375 -16.75 C 9.5 -16.75 11.050781 -16.296875 12.09375 -15.390625 C 13.144531 -14.484375 13.695312 -13.273438 13.75 -11.765625 L 10.421875 -11.609375 C 10.273438 -12.453125 9.96875 -13.0625 9.5 -13.4375 C 9.039062 -13.8125 8.34375 -14 7.40625 -14 C 6.4375 -14 5.675781 -13.796875 5.125 -13.390625 C 4.78125 -13.140625 4.609375 -12.800781 4.609375 -12.375 C 4.609375 -11.988281 4.769531 -11.65625 5.09375 -11.375 C 5.519531 -11.019531 6.539062 -10.648438 8.15625 -10.265625 C 9.769531 -9.890625 10.960938 -9.5 11.734375 -9.09375 C 12.515625 -8.6875 13.125 -8.128906 13.5625 -7.421875 C 14 -6.710938 14.21875 -5.835938 14.21875 -4.796875 C 14.21875 -3.847656 13.953125 -2.960938 13.421875 -2.140625 C 12.898438 -1.316406 12.160156 -0.703125 11.203125 -0.296875 C 10.242188 0.0976562 9.050781 0.296875 7.625 0.296875 C 5.539062 0.296875 3.941406 -0.179688 2.828125 -1.140625 C 1.710938 -2.109375 1.046875 -3.515625 0.828125 -5.359375 Z M 0.828125 -5.359375 "/></g></g></g><g fill="#ffffff" fill-opacity="1"><g transform="translate(543.335204, 208.450006)"><g><path d="M 1.578125 0 L 1.578125 -16.46875 L 4.890625 -16.46875 L 4.890625 0 Z M 1.578125 0 "/></g></g></g><g fill="#ffffff" fill-opacity="1"><g transform="translate(549.148207, 208.450006)"><g><path d="M 1.703125 0 L 1.703125 -16.46875 L 4.9375 -16.46875 L 11.6875 -5.46875 L 11.6875 -16.46875 L 14.765625 -16.46875 L 14.765625 0 L 11.4375 0 L 4.796875 -10.734375 L 4.796875 0 Z M 1.703125 0 "/></g></g></g></svg>