<svg xmlns="http://www.w3.org/2000/svg" viewBox="-5 55 305 265" width="305" height="265" preserveAspectRatio="xMidYMid meet">
<path fill="#0082ca" d="M 282.613281 182.164062 L 226.132812 239.597656 L 226.195312 239.660156 C 225.261719 240.449219 224.222656 241.09375 223.101562 241.550781 C 221.628906 242.070312 220.050781 242.359375 218.515625 242.378906 C 216.976562 242.359375 215.421875 242.070312 213.925781 241.550781 C 212.804688 241.09375 211.765625 240.449219 210.832031 239.660156 L 210.894531 239.597656 L 148.351562 176.371094 L 150.90625 173.796875 L 150.867188 173.734375 C 151.800781 172.945312 154.914062 169.707031 158.507812 169.8125 C 160.25 169.75 161.703125 170.269531 162.886719 170.972656 L 162.847656 171.015625 L 200.179688 208.804688 L 200.367188 208.617188 C 202.816406 211.070312 206.410156 213.601562 211.953125 213.601562 C 217.207031 213.601562 223.125 209.78125 225.53125 206.976562 L 266.75 165.742188 L 232.652344 129.839844 C 230.265625 127.039062 226.320312 125.375 220.839844 125.167969 C 216.9375 125.023438 211.890625 125.707031 208.359375 127.847656 C 205.992188 126.25 202.796875 125.3125 198.765625 125.167969 C 194.863281 125.023438 189.816406 125.707031 186.289062 127.847656 C 183.921875 126.25 180.722656 125.3125 176.695312 125.167969 C 172.605469 125.023438 167.246094 125.769531 163.738281 128.179688 C 161.332031 126.371094 157.988281 125.335938 153.710938 125.167969 C 153.210938 125.148438 152.714844 125.148438 152.171875 125.148438 C 151.65625 125.148438 151.136719 125.148438 150.636719 125.167969 C 145.15625 125.375 141.210938 127.039062 138.820312 129.839844 L 82.449219 187.210938 L 88.117188 192.921875 L 144.574219 135.488281 L 144.511719 135.425781 C 145.445312 134.636719 146.484375 133.992188 147.605469 133.535156 C 149.078125 133.015625 150.636719 132.726562 152.195312 132.707031 C 153.730469 132.726562 155.289062 133.015625 156.78125 133.535156 C 157.902344 133.992188 158.941406 134.636719 159.875 135.425781 L 159.816406 135.488281 L 222.355469 198.695312 L 219.800781 201.269531 L 219.863281 201.332031 C 218.929688 202.121094 215.816406 205.359375 212.222656 205.253906 C 208.027344 205.421875 205.453125 202.121094 204.519531 201.332031 L 204.582031 201.269531 L 171.878906 168.148438 C 169.492188 165.347656 165.585938 161.527344 158.777344 161.527344 C 153.523438 161.527344 147.605469 165.347656 145.195312 168.148438 L 103.980469 209.386719 L 138.074219 245.265625 C 140.460938 248.070312 144.40625 249.730469 149.890625 249.9375 C 153.792969 250.085938 158.839844 249.398438 162.367188 247.261719 C 164.734375 248.859375 167.933594 249.792969 171.960938 249.9375 C 175.863281 250.085938 180.910156 249.398438 184.441406 247.261719 C 186.808594 248.859375 190.003906 249.792969 194.011719 249.9375 C 198.101562 250.085938 203.460938 249.335938 206.988281 246.929688 C 209.398438 248.734375 212.742188 249.773438 217.019531 249.9375 C 217.515625 249.960938 218.015625 249.960938 218.554688 249.960938 C 219.074219 249.960938 219.59375 249.960938 220.09375 249.9375 C 225.574219 249.730469 229.519531 248.070312 231.90625 245.265625 L 288.28125 187.875 Z M 220.488281 132.746094 C 222.9375 132.914062 225.160156 133.890625 226.984375 135.445312 L 226.921875 135.507812 L 233.464844 142.089844 L 234.398438 143.027344 L 255.972656 164.765625 L 250.613281 170.164062 L 214.402344 133.660156 C 216.355469 132.914062 218.472656 132.601562 220.488281 132.746094 Z M 198.433594 132.746094 C 200.886719 132.914062 203.105469 133.890625 204.933594 135.445312 L 204.871094 135.507812 L 211.414062 142.089844 L 212.347656 143.027344 L 244.96875 175.894531 L 239.609375 181.292969 L 192.351562 133.660156 C 194.304688 132.914062 196.402344 132.601562 198.433594 132.746094 Z M 169.613281 133.929688 C 171.753906 132.996094 174.121094 132.582031 176.382812 132.726562 C 178.835938 132.894531 181.054688 133.867188 182.882812 135.425781 L 182.820312 135.488281 L 189.363281 142.070312 L 190.296875 143.003906 L 233.960938 187.003906 L 228.066406 192.960938 Z M 150.242188 242.339844 C 147.792969 242.171875 145.570312 241.195312 143.742188 239.640625 L 143.804688 239.578125 L 137.265625 232.996094 L 136.332031 232.0625 L 114.757812 210.320312 L 120.113281 204.921875 L 156.328125 241.425781 C 154.375 242.171875 152.257812 242.484375 150.242188 242.339844 Z M 172.292969 242.339844 C 169.84375 242.171875 167.621094 241.195312 165.792969 239.640625 L 165.855469 239.578125 L 159.316406 232.996094 L 158.382812 232.0625 L 125.761719 199.191406 L 131.117188 193.792969 L 178.378906 241.425781 C 176.425781 242.171875 174.308594 242.484375 172.292969 242.339844 Z M 194.34375 242.339844 C 191.894531 242.171875 189.671875 241.195312 187.847656 239.640625 L 187.90625 239.578125 L 181.367188 232.996094 L 180.433594 232.0625 L 136.789062 188.0625 L 142.683594 182.101562 L 201.113281 241.15625 C 198.976562 242.089844 196.609375 242.503906 194.34375 242.339844 Z M 194.34375 242.339844 " fill-opacity="1" fill-rule="nonzero"/>
</svg>
